<?xml version="1.0" standalone="no"?>
<!DOCTYPE svg PUBLIC "-//W3C//DTD SVG 20010904//EN"
 "http://www.w3.org/TR/2001/REC-SVG-20010904/DTD/svg10.dtd">
<svg version="1.0" xmlns="http://www.w3.org/2000/svg"
 width="67.000000pt" height="50.000000pt" viewBox="0 0 67.000000 50.000000"
 preserveAspectRatio="xMidYMid meet">

<g transform="translate(0.000000,50.000000) scale(0.100000,-0.100000)"
fill="#000000" stroke="none">
<path d="M323 458 c-6 -7 -13 -29 -16 -48 -5 -25 -4 -30 3 -19 8 14 16 15 51
7 29 -8 37 -14 29 -22 -8 -8 -13 -7 -20 3 -7 12 -11 12 -25 -2 -11 -11 -12
-17 -4 -17 7 0 9 -3 6 -6 -4 -4 -14 -1 -23 7 -16 13 -17 11 -11 -21 4 -18 13
-38 20 -42 9 -6 9 -8 -1 -8 -8 0 -16 8 -19 18 -4 18 -7 18 -56 2 -50 -16 -53
-19 -70 -71 -40 -121 -40 -127 3 -152 25 -15 28 -22 23 -52 l-6 -35 140 0 140
0 11 39 c16 51 15 85 -4 169 -15 69 -16 70 -60 87 -48 18 -52 28 -29 71 18 35
19 76 3 92 -16 16 -73 15 -85 0z m67 -28 c9 -18 8 -19 -12 -16 -13 3 -29 5
-35 5 -19 1 -16 19 5 24 30 8 31 7 42 -13z m-86 -304 c-10 -8 -21 -12 -24 -10
-5 6 21 24 34 24 6 0 1 -6 -10 -14z m53 -52 c-3 -3 -12 -4 -19 -1 -8 3 -5 6 6
6 11 1 17 -2 13 -5z"/>
</g>
</svg>
